<svg width="157" height="44" viewBox="0 0 157 44" fill="none" xmlns="http://www.w3.org/2000/svg">
<path d="M64.958 17.234C64.334 17.234 63.74 17.15 63.176 16.982C62.612 16.802 62.114 16.478 61.682 16.01C61.25 15.542 60.908 14.882 60.656 14.03C60.416 13.166 60.296 12.056 60.296 10.7C60.296 9.368 60.41 8.282 60.638 7.442C60.878 6.59 61.214 5.936 61.646 5.48C62.078 5.012 62.594 4.694 63.194 4.526C63.794 4.346 64.46 4.256 65.192 4.256C65.576 4.256 65.966 4.274 66.362 4.31C66.758 4.334 67.124 4.37 67.46 4.418C67.808 4.466 68.078 4.514 68.27 4.562L68.09 5.858C67.862 5.834 67.496 5.792 66.992 5.732C66.5 5.66 65.864 5.624 65.084 5.624C64.484 5.624 63.998 5.66 63.626 5.732C63.266 5.792 62.996 5.918 62.816 6.11C62.588 6.338 62.378 6.812 62.186 7.532C62.006 8.252 61.916 9.296 61.916 10.664C61.916 11.708 61.97 12.554 62.078 13.202C62.198 13.85 62.33 14.342 62.474 14.678C62.618 15.002 62.744 15.224 62.852 15.344C62.996 15.5 63.23 15.638 63.554 15.758C63.89 15.866 64.382 15.92 65.03 15.92C65.45 15.92 65.816 15.896 66.128 15.848C66.452 15.8 66.71 15.734 66.902 15.65V11.006L67.586 11.726L64.994 11.6V10.484H68.342V16.532C68.342 16.532 68.198 16.592 67.91 16.712C67.634 16.82 67.238 16.934 66.722 17.054C66.218 17.174 65.63 17.234 64.958 17.234ZM75.9615 17.252C75.0975 17.252 74.3595 17.09 73.7475 16.766C73.1475 16.43 72.6915 15.848 72.3795 15.02C72.0675 14.192 71.9115 13.04 71.9115 11.564V4.49H73.4235V11.078C73.4235 12.158 73.4595 13.016 73.5315 13.652C73.6035 14.288 73.7295 14.768 73.9095 15.092C74.0895 15.416 74.3415 15.632 74.6655 15.74C75.0015 15.836 75.4335 15.884 75.9615 15.884C76.4895 15.884 76.9215 15.83 77.2575 15.722C77.5935 15.614 77.8515 15.404 78.0315 15.092C78.2115 14.768 78.3375 14.288 78.4095 13.652C78.4815 13.004 78.5175 12.146 78.5175 11.078V4.49H80.0295V11.402C80.0295 12.938 79.8675 14.132 79.5435 14.984C79.2315 15.824 78.7755 16.412 78.1755 16.748C77.5755 17.084 76.8375 17.252 75.9615 17.252ZM83.8119 17.018L83.8659 11.276L83.8119 4.49H85.3419L85.2699 10.016L85.3419 17L83.8119 17.018ZM89.1205 17V4.49H90.6325L90.5425 16.388L89.8585 15.704L95.0605 15.668V17H89.1205ZM97.1537 17V4.49H98.6657L98.6117 10.466L97.9277 9.962H104.552L103.868 10.466L103.832 4.49H105.344V17H103.832L103.868 10.79L104.552 11.294H97.9277L98.6117 10.79L98.6657 17H97.1537ZM109.124 17V4.49H115.262V5.822L109.952 5.768L110.654 5.084L110.528 10.448L109.862 9.998H114.83V11.276H109.862L110.528 10.754L110.654 16.388L109.952 15.704L115.262 15.668V17H109.124ZM118.37 17L118.46 11.078L118.406 4.49C118.538 4.466 118.754 4.442 119.054 4.418C119.354 4.394 119.696 4.37 120.08 4.346C120.464 4.322 120.854 4.304 121.25 4.292C121.658 4.268 122.036 4.256 122.384 4.256C123.2 4.256 123.908 4.382 124.508 4.634C125.108 4.886 125.57 5.3 125.894 5.876C126.218 6.44 126.38 7.196 126.38 8.144C126.38 9.188 126.152 10.016 125.696 10.628C125.24 11.24 124.58 11.648 123.716 11.852V11.906L126.542 17H124.76L122.24 12.032L119.9 11.942V17H118.37ZM122.564 10.772C123.452 10.772 124.04 10.562 124.328 10.142C124.628 9.71 124.778 9.038 124.778 8.126C124.778 7.382 124.712 6.818 124.58 6.434C124.46 6.038 124.292 5.78 124.076 5.66C123.944 5.576 123.74 5.516 123.464 5.48C123.2 5.432 122.912 5.408 122.6 5.408C122.108 5.408 121.604 5.432 121.088 5.48C120.584 5.528 120.194 5.57 119.918 5.606L119.882 10.592C120.302 10.64 120.746 10.682 121.214 10.718C121.694 10.754 122.144 10.772 122.564 10.772ZM129.706 17L130.138 4.49H132.334L135.16 12.644H135.286L138.13 4.49H140.326L140.758 17H139.246L139.102 6.002H138.976L136.15 14.066H134.296L131.488 6.002H131.362L131.218 17H129.706ZM144.456 17V4.49H150.594V5.822L145.284 5.768L145.986 5.084L145.86 10.448L145.194 9.998H150.162V11.276H145.194L145.86 10.754L145.986 16.388L145.284 15.704L150.594 15.668V17H144.456ZM59.09 39L62.492 26.49H64.616L68.018 39H66.47L65.516 35.256L66.272 35.688H60.872L61.592 35.256L60.638 39H59.09ZM61.628 35.058L61.124 34.356H65.984L65.48 35.058L63.446 27.156L64.292 27.822H62.816L63.662 27.156L61.628 35.058ZM69.9955 39V26.49H72.0295L77.1235 37.182H77.1775L76.9435 26.49H78.4555V39H76.4215L71.3275 28.308H71.2735L71.5075 39H69.9955ZM83.8498 39L83.8858 27.768L80.3758 27.822V26.49H88.8358V27.822L85.3258 27.768L85.3618 39H83.8498ZM94.8052 39.252C93.9412 39.252 93.2032 39.09 92.5912 38.766C91.9912 38.43 91.5352 37.848 91.2232 37.02C90.9112 36.192 90.7552 35.04 90.7552 33.564V26.49H92.2672V33.078C92.2672 34.158 92.3032 35.016 92.3752 35.652C92.4472 36.288 92.5732 36.768 92.7532 37.092C92.9332 37.416 93.1852 37.632 93.5092 37.74C93.8452 37.836 94.2772 37.884 94.8052 37.884C95.3332 37.884 95.7652 37.83 96.1012 37.722C96.4372 37.614 96.6952 37.404 96.8752 37.092C97.0552 36.768 97.1812 36.288 97.2532 35.652C97.3252 35.004 97.3612 34.146 97.3612 33.078V26.49H98.8732V33.402C98.8732 34.938 98.7112 36.132 98.3872 36.984C98.0752 37.824 97.6192 38.412 97.0192 38.748C96.4192 39.084 95.6812 39.252 94.8052 39.252ZM102.656 39V26.49H104.69L109.784 37.182H109.838L109.604 26.49H111.116V39H109.082L103.988 28.308H103.934L104.168 39H102.656ZM114.89 39V26.49H121.028V27.822L115.718 27.768L116.42 27.084L116.294 32.448L115.628 31.998H120.596V33.276H115.628L116.294 32.754L116.42 38.388L115.718 37.704L121.028 37.668V39H114.89ZM126.674 39.252C126.182 39.252 125.708 39.192 125.252 39.072C124.796 38.964 124.388 38.832 124.028 38.676C123.68 38.52 123.404 38.388 123.2 38.28C122.996 38.16 122.894 38.1 122.894 38.1C122.894 38.1 122.918 38.04 122.966 37.92C123.026 37.788 123.092 37.644 123.164 37.488C123.236 37.32 123.296 37.176 123.344 37.056C123.404 36.936 123.434 36.876 123.434 36.876C123.434 36.876 123.53 36.93 123.722 37.038C123.926 37.134 124.196 37.248 124.532 37.38C124.868 37.5 125.252 37.614 125.684 37.722C126.116 37.818 126.566 37.866 127.034 37.866C127.334 37.866 127.568 37.842 127.736 37.794C127.916 37.734 128.042 37.68 128.114 37.632C128.354 37.464 128.54 37.236 128.672 36.948C128.804 36.648 128.87 36.264 128.87 35.796C128.87 35.34 128.774 34.962 128.582 34.662C128.39 34.362 128.132 34.11 127.808 33.906C127.496 33.702 127.154 33.522 126.782 33.366C126.302 33.162 125.852 32.958 125.432 32.754C125.012 32.55 124.64 32.316 124.316 32.052C123.992 31.788 123.74 31.458 123.56 31.062C123.38 30.654 123.29 30.15 123.29 29.55C123.29 28.926 123.428 28.368 123.704 27.876C123.98 27.372 124.394 26.976 124.946 26.688C125.498 26.388 126.182 26.238 126.998 26.238C127.394 26.238 127.766 26.262 128.114 26.31C128.462 26.346 128.774 26.388 129.05 26.436C129.326 26.484 129.542 26.532 129.698 26.58C129.854 26.616 129.932 26.634 129.932 26.634L129.68 27.93C129.68 27.93 129.596 27.918 129.428 27.894C129.26 27.858 129.032 27.816 128.744 27.768C128.456 27.72 128.132 27.684 127.772 27.66C127.412 27.624 127.046 27.606 126.674 27.606C126.374 27.606 126.134 27.624 125.954 27.66C125.786 27.696 125.636 27.756 125.504 27.84C125.348 27.924 125.198 28.098 125.054 28.362C124.922 28.614 124.856 28.962 124.856 29.406C124.856 29.898 124.982 30.3 125.234 30.612C125.486 30.924 125.816 31.182 126.224 31.386C126.632 31.578 127.064 31.77 127.52 31.962C127.88 32.106 128.234 32.274 128.582 32.466C128.93 32.646 129.242 32.868 129.518 33.132C129.794 33.396 130.016 33.732 130.184 34.14C130.352 34.536 130.436 35.022 130.436 35.598C130.436 36.33 130.274 36.972 129.95 37.524C129.638 38.064 129.2 38.49 128.636 38.802C128.072 39.102 127.418 39.252 126.674 39.252Z" fill="white"/>
<path d="M47.5 30.8567C47.5 42.1785 36.8218 40.8568 25.5 40.8568C4.5 40.8568 0 18.6786 0 7.35675C0 -3.96508 15.6782 10.3567 27 10.3567C38.3218 10.3567 47.5 19.5348 47.5 30.8567Z" fill="#381688"/>
</svg>
